<svg width="300" height="132" viewBox="0 0 300 132" fill="none" xmlns="http://www.w3.org/2000/svg">
  <path d="M39.6923 77.7079H56.1579V73.9613H43.8168V54.2925H39.6923V77.7079" fill="white" />
  <path fillRule="evenodd" clipRule="evenodd"
    d="M61.2798 64.0602V77.7079H78.852V74.0284H65.4043V67.7394H77.1749V64.0602H72.1917H65.4043H61.2798" fill="white" />
  <path fillRule="evenodd" clipRule="evenodd" d="M78.6841 54.2925H61.2798V57.9716H78.6841V54.2925Z" fill="#A50D73" />
  <path fillRule="evenodd" clipRule="evenodd"
    d="M96.7166 54.1254H92.8938L82.5654 77.7079H86.7906C90.864 68.1709 90.4329 69.0631 94.7383 59.0424C99.0311 68.9508 98.7011 68.2452 102.686 77.7079H107.046L96.7166 54.1254"
    fill="white" />
  <path
    d="M128.297 70.4826L115.722 54.2925H111.899V77.7079H115.957V61.0495L128.901 77.7079H132.356V54.2925H128.297V70.4826"
    fill="white" />
  <path d="M148.007 69.4456V65.4648H138.081V69.4456H148.007Z" fill="#B8BAC1" />
  <path
    d="M174.155 73.9613L171.506 71.2855C170.5 72.2222 169.482 72.9634 168.454 73.5095C167.426 74.056 166.196 74.3292 164.765 74.3292C163.647 74.3292 162.614 74.1119 161.664 73.677C160.714 73.242 159.892 72.6456 159.199 71.8876C158.506 71.1292 157.969 70.2427 157.589 69.2283C157.209 68.2134 157.019 67.1262 157.019 65.9669C157.019 64.8072 157.209 63.7253 157.589 62.722C157.969 61.7182 158.506 60.8433 159.199 60.096C159.892 59.349 160.714 58.7581 161.664 58.3231C162.614 57.8885 163.647 57.6708 164.765 57.6708C166.107 57.6708 167.303 57.9387 168.354 58.4737C169.404 59.0091 170.4 59.7116 171.338 60.5808L173.988 57.5371C173.429 57.0021 172.836 56.5111 172.21 56.065C171.584 55.6197 170.902 55.2349 170.165 54.9111C169.427 54.588 168.616 54.337 167.734 54.1584C166.85 53.9802 165.872 53.8909 164.799 53.8909C163.011 53.8909 161.379 54.2086 159.903 54.8444C158.427 55.4798 157.153 56.3498 156.08 57.4535C155.007 58.5573 154.174 59.8453 153.582 61.317C152.989 62.789 152.693 64.3611 152.693 66.0336C152.693 67.7283 152.994 69.3118 153.598 70.7835C154.202 72.2551 155.035 73.5321 156.097 74.6136C157.159 75.6951 158.416 76.5482 159.87 77.1725C161.323 77.7972 162.91 78.1092 164.631 78.1092C165.727 78.1092 166.727 78.0145 167.633 77.8248C168.538 77.6355 169.371 77.3565 170.131 76.9889C170.891 76.6206 171.601 76.186 172.261 75.684C172.92 75.1823 173.552 74.6079 174.155 73.9613"
    fill="white" />
  <path
    d="M202.148 65.9669C202.148 64.3166 201.846 62.7553 201.242 61.2836C200.639 59.812 199.8 58.5297 198.727 57.437C197.654 56.344 196.369 55.4798 194.871 54.8444C193.373 54.2086 191.719 53.8909 189.907 53.8909C188.097 53.8909 186.442 54.2147 184.944 54.8609C183.447 55.5078 182.15 56.3831 181.055 57.4872C179.959 58.591 179.109 59.8783 178.506 61.3507C177.902 62.8224 177.6 64.3833 177.6 66.0336C177.6 67.6838 177.902 69.2447 178.506 70.7168C179.109 72.1884 179.948 73.4708 181.021 74.5634C182.094 75.656 183.379 76.5202 184.877 77.1556C186.375 77.7914 188.03 78.1092 189.841 78.1092C191.652 78.1092 193.306 77.7861 194.804 77.1392C196.301 76.4926 197.598 75.6169 198.694 74.5132C199.789 73.4095 200.639 72.1218 201.242 70.6497C201.846 69.1781 202.148 67.6171 202.148 65.9669ZM197.822 66.0336C197.822 67.171 197.627 68.2468 197.235 69.2616C196.844 70.2761 196.301 71.1567 195.609 71.9041C194.916 72.651 194.083 73.242 193.11 73.677C192.137 74.1119 191.07 74.3292 189.907 74.3292C188.745 74.3292 187.672 74.1062 186.688 73.6601C185.705 73.214 184.861 72.6119 184.157 71.8539C183.452 71.0958 182.904 70.209 182.513 69.1945C182.122 68.1801 181.926 67.1043 181.926 65.9669C181.926 64.829 182.122 63.7533 182.513 62.7388C182.904 61.724 183.447 60.8433 184.14 60.096C184.833 59.349 185.665 58.7581 186.638 58.3231C187.61 57.8885 188.678 57.6708 189.841 57.6708C191.003 57.6708 192.076 57.8939 193.06 58.34C194.043 58.786 194.888 59.3881 195.592 60.1466C196.296 60.9046 196.844 61.7911 197.235 62.8055C197.627 63.8203 197.822 64.8965 197.822 66.0336Z"
    fill="white" />
  <path
    d="M229.201 65.9669C229.201 64.3166 228.899 62.7775 228.296 61.3507C227.692 59.9231 226.837 58.6856 225.73 57.6374C224.624 56.5893 223.305 55.7703 221.774 55.1789C220.242 54.588 218.56 54.2925 216.726 54.2925H207.974V77.7079H216.726C218.56 77.7079 220.242 77.4067 221.774 76.8046C223.305 76.2025 224.624 75.3774 225.73 74.3292C226.837 73.281 227.692 72.0382 228.296 70.5995C228.899 69.1612 229.201 67.6171 229.201 65.9669V65.9669ZM224.876 66.0335C224.876 67.1928 224.68 68.2583 224.289 69.2283C223.897 70.1979 223.35 71.0345 222.646 71.737C221.941 72.4391 221.086 72.9856 220.08 73.3761C219.074 73.7662 217.956 73.9613 216.726 73.9613H212.099V58.0387H216.726C217.956 58.0387 219.074 58.2399 220.08 58.6412C221.086 59.0424 221.941 59.6 222.646 60.3136C223.35 61.0269 223.897 61.8688 224.289 62.8392C224.68 63.8092 224.876 64.8738 224.876 66.0335Z"
    fill="white" />
  <path fillRule="evenodd" clipRule="evenodd"
    d="M235.027 64.0602V77.7079H252.6V74.0284H239.152V67.7394H250.923V64.0602H246.189H239.152H235.027Z" fill="white" />
  <path fillRule="evenodd" clipRule="evenodd" d="M252.432 54.2925H235.027V57.9716H252.432V54.2925Z" fill="#A50D73" />
  <path
    d="M278.245 77.7079L271.907 68.8435C272.734 68.6204 273.489 68.3023 274.17 67.89C274.852 67.4776 275.439 66.9759 275.931 66.3846C276.423 65.7936 276.809 65.1138 277.088 64.3446C277.367 63.575 277.507 62.6997 277.507 61.7182C277.507 60.5808 277.306 59.5498 276.904 58.6239C276.501 57.6988 275.925 56.9181 275.177 56.2827C274.427 55.6469 273.511 55.1563 272.427 54.8106C271.343 54.4653 270.13 54.2925 268.788 54.2925H258.325V77.7079H262.45V69.5456H267.615L273.383 77.7079H278.245ZM273.316 61.9528C273.316 63.1569 272.88 64.1158 272.008 64.829C271.136 65.543 269.962 65.9002 268.486 65.9002H262.45V58.0387H268.453C269.996 58.0387 271.192 58.3675 272.041 59.0256C272.891 59.6836 273.316 60.6593 273.316 61.9528Z"
    fill="white" />
  <path
    d="M286.888 60.4137C286.888 59.6334 287.223 58.97 287.894 58.4235C288.565 57.8774 289.503 57.6041 290.711 57.6041C291.784 57.6041 292.846 57.8103 293.896 58.2227C294.948 58.6354 296.01 59.2321 297.082 60.0124L299.296 56.9016C298.089 55.9427 296.797 55.2123 295.423 54.7106C294.047 54.2086 292.499 53.9579 290.778 53.9579C289.616 53.9579 288.542 54.1197 287.559 54.4431C286.575 54.7666 285.731 55.2291 285.027 55.8312C284.322 56.4333 283.769 57.1526 283.366 57.9889C282.964 58.8247 282.763 59.756 282.763 60.7816C282.763 61.8746 282.937 62.8001 283.283 63.5582C283.63 64.3166 284.133 64.9631 284.792 65.4985C285.452 66.0335 286.268 66.4796 287.24 66.8364C288.212 67.1928 289.325 67.5167 290.577 67.8068C291.672 68.0739 292.561 68.3303 293.243 68.576C293.925 68.8212 294.461 69.083 294.852 69.362C295.244 69.6406 295.512 69.9472 295.657 70.2818C295.803 70.6164 295.875 70.9954 295.875 71.4192C295.875 72.3333 295.501 73.058 294.752 73.5934C294.003 74.1288 292.991 74.3963 291.717 74.3963C290.241 74.3963 288.922 74.1341 287.76 73.6099C286.597 73.086 285.446 72.3333 284.306 71.3522L281.824 74.2959C283.233 75.5667 284.764 76.5091 286.418 77.1223C288.073 77.7359 289.805 78.0424 291.616 78.0424C292.846 78.0424 293.975 77.8861 295.003 77.5737C296.032 77.2618 296.915 76.8046 297.653 76.2025C298.39 75.6004 298.966 74.8642 299.38 73.9946C299.793 73.1251 300 72.1325 300 71.0176C300 70.0365 299.838 69.1834 299.514 68.4591C299.189 67.734 298.714 67.0982 298.089 66.5524C297.463 66.0059 296.675 65.543 295.724 65.164C294.774 64.7845 293.684 64.4389 292.455 64.1269C291.337 63.8594 290.415 63.603 289.688 63.3577C288.962 63.1121 288.392 62.8449 287.978 62.5548C287.564 62.2647 287.279 61.9528 287.122 61.6182C286.966 61.2836 286.888 60.882 286.888 60.4137"
    fill="white" />
  <path fillRule="evenodd" clipRule="evenodd"
    d="M128.43 3.89221V51.002H132.333V-5.43203e-06H0V132H132.333V80.998H128.43V128.107H3.90215V3.89221H128.43Z"
    fill="#B8BAC1" />
  <path
    d="M144.526 88.0083L143.649 87.1449C143.416 87.3767 143.169 87.5664 142.909 87.7144C142.648 87.8619 142.346 87.9363 142.001 87.9363C141.72 87.9363 141.464 87.8822 141.231 87.7745C140.999 87.6661 140.798 87.5204 140.63 87.3369C140.462 87.1525 140.331 86.9368 140.239 86.6888C140.147 86.4412 140.101 86.173 140.101 85.8851C140.101 85.6054 140.147 85.3436 140.239 85.0995C140.331 84.8554 140.458 84.6419 140.618 84.458C140.779 84.274 140.971 84.128 141.195 84.0199C141.42 83.9122 141.664 83.8578 141.929 83.8578C142.297 83.8578 142.608 83.9318 142.861 84.0801C143.113 84.228 143.352 84.4177 143.576 84.6496L144.478 83.678C144.181 83.3504 143.835 83.0863 143.438 82.8867C143.041 82.6866 142.542 82.5866 141.941 82.5866C141.468 82.5866 141.029 82.6747 140.624 82.8502C140.219 83.0262 139.871 83.2661 139.578 83.57C139.285 83.8743 139.057 84.2257 138.892 84.6254C138.728 85.0255 138.646 85.4532 138.646 85.9093C138.646 86.3646 138.728 86.7907 138.892 87.1866C139.057 87.5825 139.285 87.9301 139.578 88.2298C139.871 88.5299 140.217 88.7656 140.618 88.9377C141.019 89.1097 141.456 89.1956 141.929 89.1956C142.546 89.1956 143.055 89.0856 143.456 88.8656C143.857 88.646 144.214 88.3601 144.526 88.0083V88.0083ZM147.316 86.6409C147.316 86.2251 147.368 85.8591 147.473 85.5433C147.577 85.2271 147.725 84.9654 147.917 84.7576C148.11 84.5495 148.338 84.3936 148.603 84.2897C148.867 84.1859 149.16 84.1337 149.48 84.1337H149.565V82.5985C149.003 82.5747 148.539 82.7065 148.17 82.9943C147.801 83.2822 147.516 83.6658 147.316 84.146V82.7188H145.861V89.0519H147.316V86.6409ZM151.717 86.4006H156.383C156.391 86.3289 156.397 86.2607 156.401 86.1967C156.405 86.1327 156.407 86.0687 156.407 86.0051C156.407 85.5494 156.343 85.1137 156.215 84.6975C156.087 84.282 155.896 83.918 155.644 83.6064C155.391 83.294 155.075 83.0465 154.694 82.8625C154.313 82.6786 153.87 82.5866 153.365 82.5866C152.908 82.5866 152.491 82.6747 152.114 82.8502C151.737 83.0262 151.411 83.2641 151.134 83.5642C150.858 83.8639 150.643 84.2138 150.491 84.6139C150.338 85.0137 150.263 85.4414 150.263 85.897C150.263 86.3926 150.346 86.8429 150.515 87.2464C150.683 87.6504 150.914 87.9961 151.206 88.2843C151.499 88.5721 151.844 88.7955 152.241 88.9557C152.637 89.1159 153.064 89.1956 153.521 89.1956C154.106 89.1956 154.61 89.0875 155.03 88.8721C155.451 88.656 155.814 88.3678 156.118 88.0083L155.265 87.2526C155.008 87.5001 154.748 87.6883 154.483 87.8163C154.219 87.9443 153.906 88.0083 153.545 88.0083C153.072 88.0083 152.671 87.8703 152.343 87.5944C152.014 87.3185 151.806 86.9207 151.717 86.4006V86.4006ZM151.705 85.4413C151.77 84.9458 151.948 84.5438 152.241 84.2357C152.533 83.9279 152.904 83.7742 153.353 83.7742C153.593 83.7742 153.808 83.8179 153.996 83.9065C154.184 83.9938 154.347 84.1119 154.483 84.2598C154.619 84.4081 154.728 84.584 154.808 84.7875C154.888 84.9914 154.94 85.2095 154.964 85.4413H151.705ZM163.201 89.0519V85.2972C163.201 84.4499 162.973 83.7919 162.516 83.3243C162.059 82.8564 161.358 82.6226 160.411 82.6226C159.89 82.6226 159.445 82.6705 159.076 82.7663C158.708 82.8625 158.347 82.9905 157.994 83.1503L158.391 84.3139C158.68 84.1939 158.964 84.0977 159.245 84.026C159.526 83.954 159.846 83.918 160.207 83.918C160.712 83.918 161.099 84.0337 161.368 84.2656C161.636 84.4978 161.77 84.8335 161.77 85.2735V85.4291C161.522 85.3494 161.263 85.2854 160.994 85.2375C160.726 85.1896 160.399 85.1654 160.014 85.1654C159.646 85.1654 159.303 85.2076 158.987 85.2915C158.67 85.3754 158.397 85.5011 158.169 85.669C157.94 85.8372 157.762 86.0492 157.633 86.3052C157.505 86.5608 157.441 86.8605 157.441 87.2046V87.2284C157.441 87.5484 157.503 87.8301 157.628 88.0742C157.752 88.318 157.916 88.5219 158.121 88.6859C158.325 88.8499 158.564 88.9741 158.836 89.0576C159.108 89.1416 159.397 89.1837 159.702 89.1837C160.183 89.1837 160.592 89.0956 160.928 88.9197C161.265 88.7441 161.542 88.528 161.758 88.272V89.0519H163.201ZM161.794 86.7609C161.794 86.9605 161.752 87.1426 161.668 87.3066C161.584 87.4706 161.465 87.6105 161.313 87.7262C161.161 87.8424 160.982 87.932 160.778 87.9961C160.574 88.0601 160.352 88.0919 160.11 88.0919C159.766 88.0919 159.475 88.0121 159.239 87.8523C159.002 87.6921 158.884 87.4603 158.884 87.1564V87.1326C158.884 86.8049 159.012 86.5528 159.269 86.3769C159.526 86.2009 159.882 86.1132 160.339 86.1132C160.62 86.1132 160.886 86.1373 161.139 86.1848C161.392 86.2328 161.61 86.2929 161.794 86.3646V86.7609ZM166.628 83.9659H168.336V82.7188H166.628V80.9793H165.173V82.7188H164.367V83.9659H165.173V87.3005C165.173 87.6523 165.217 87.9462 165.305 88.1823C165.393 88.418 165.52 88.6081 165.684 88.7518C165.849 88.8955 166.043 88.9998 166.267 89.0638C166.492 89.1274 166.736 89.1596 167.001 89.1596C167.273 89.1596 167.514 89.1316 167.722 89.076C167.931 89.0197 168.127 88.94 168.311 88.8361V87.6484C168.023 87.7922 167.722 87.8642 167.41 87.8642C167.161 87.8642 166.969 87.8021 166.833 87.6783C166.696 87.5542 166.628 87.3526 166.628 87.0728V83.9659ZM170.729 86.4006H175.395C175.402 86.3289 175.408 86.2607 175.413 86.1967C175.417 86.1327 175.418 86.0687 175.418 86.0051C175.418 85.5494 175.354 85.1137 175.226 84.6975C175.098 84.282 174.907 83.918 174.655 83.6064C174.402 83.294 174.086 83.0465 173.705 82.8625C173.324 82.6786 172.881 82.5866 172.376 82.5866C171.919 82.5866 171.503 82.6747 171.126 82.8502C170.749 83.0262 170.422 83.2641 170.146 83.5642C169.869 83.8639 169.655 84.2138 169.502 84.6139C169.35 85.0137 169.274 85.4414 169.274 85.897C169.274 86.3926 169.358 86.8429 169.526 87.2464C169.695 87.6504 169.925 87.9961 170.218 88.2843C170.511 88.5721 170.855 88.7955 171.252 88.9557C171.649 89.1159 172.076 89.1956 172.532 89.1956C173.118 89.1956 173.621 89.0875 174.042 88.8721C174.463 88.656 174.825 88.3678 175.13 88.0083L174.276 87.2526C174.02 87.5001 173.759 87.6883 173.494 87.8163C173.23 87.9443 172.917 88.0083 172.556 88.0083C172.084 88.0083 171.683 87.8703 171.354 87.5944C171.025 87.3185 170.817 86.9207 170.729 86.4006V86.4006ZM170.717 85.4413C170.781 84.9458 170.959 84.5438 171.252 84.2357C171.544 83.9279 171.915 83.7742 172.364 83.7742C172.605 83.7742 172.819 83.8179 173.008 83.9065C173.196 83.9938 173.358 84.1119 173.494 84.2598C173.631 84.4081 173.739 84.584 173.819 84.7875C173.899 84.9914 173.952 85.2095 173.976 85.4413H170.717ZM183.163 87.3725L181.455 82.7188H179.891L182.501 89.0994H183.812L186.409 82.7188H184.882L183.163 87.3725ZM192.674 89.0519V85.2972C192.674 84.4499 192.445 83.7919 191.989 83.3243C191.532 82.8564 190.83 82.6226 189.884 82.6226C189.363 82.6226 188.918 82.6705 188.549 82.7663C188.181 82.8625 187.82 82.9905 187.467 83.1503L187.864 84.3139C188.152 84.1939 188.437 84.0977 188.718 84.026C188.998 83.954 189.319 83.918 189.68 83.918C190.185 83.918 190.572 84.0337 190.84 84.2656C191.109 84.4978 191.243 84.8335 191.243 85.2735V85.4291C190.995 85.3494 190.736 85.2854 190.468 85.2375C190.199 85.1896 189.872 85.1654 189.487 85.1654C189.119 85.1654 188.776 85.2076 188.46 85.2915C188.143 85.3754 187.87 85.5011 187.642 85.669C187.413 85.8372 187.235 86.0492 187.107 86.3052C186.978 86.5608 186.914 86.8605 186.914 87.2046V87.2284C186.914 87.5484 186.976 87.8301 187.101 88.0742C187.225 88.318 187.389 88.5219 187.594 88.6859C187.798 88.8499 188.037 88.9741 188.309 89.0576C188.581 89.1416 188.87 89.1837 189.175 89.1837C189.656 89.1837 190.065 89.0956 190.401 88.9197C190.738 88.7441 191.015 88.528 191.231 88.272V89.0519H192.674ZM191.267 86.7609C191.267 86.9605 191.225 87.1426 191.141 87.3066C191.057 87.4706 190.939 87.6105 190.786 87.7262C190.634 87.8424 190.455 87.932 190.251 87.9961C190.046 88.0601 189.824 88.0919 189.583 88.0919C189.239 88.0919 188.948 88.0121 188.712 87.8523C188.475 87.6921 188.357 87.4603 188.357 87.1564V87.1326C188.357 86.8049 188.485 86.5528 188.742 86.3769C188.998 86.2009 189.355 86.1132 189.812 86.1132C190.093 86.1132 190.36 86.1373 190.612 86.1848C190.864 86.2328 191.083 86.2929 191.267 86.3646V86.7609ZM195.944 89.0519V80.2955H194.49V89.0519H195.944ZM202.017 86.2929C202.017 86.7888 201.885 87.1748 201.62 87.4507C201.356 87.7262 201.011 87.8642 200.586 87.8642C200.153 87.8642 199.819 87.7301 199.582 87.4622C199.346 87.1943 199.228 86.813 199.228 86.3171V82.7188H197.773V86.7486C197.773 87.4925 197.969 88.0842 198.362 88.5238C198.755 88.9637 199.312 89.1837 200.033 89.1837C200.523 89.1837 200.923 89.0737 201.236 88.8537C201.549 88.6338 201.809 88.372 202.017 88.0681V89.0519H203.472V82.7188H202.017V86.2929ZM206.406 86.4006H211.072C211.08 86.3289 211.086 86.2607 211.09 86.1967C211.094 86.1327 211.096 86.0687 211.096 86.0051C211.096 85.5494 211.032 85.1137 210.904 84.6975C210.775 84.282 210.585 83.918 210.332 83.6064C210.08 83.294 209.763 83.0465 209.383 82.8625C209.002 82.6786 208.559 82.5866 208.054 82.5866C207.597 82.5866 207.18 82.6747 206.803 82.8502C206.426 83.0262 206.1 83.2641 205.823 83.5642C205.547 83.8639 205.332 84.2138 205.18 84.6139C205.028 85.0137 204.951 85.4414 204.951 85.897C204.951 86.3926 205.035 86.8429 205.204 87.2464C205.373 87.6504 205.602 87.9961 205.895 88.2843C206.188 88.5721 206.533 88.7955 206.929 88.9557C207.326 89.1159 207.753 89.1956 208.21 89.1956C208.795 89.1956 209.298 89.0875 209.72 88.8721C210.14 88.656 210.503 88.3678 210.807 88.0083L209.954 87.2526C209.697 87.5001 209.436 87.6883 209.172 87.8163C208.907 87.9443 208.595 88.0083 208.234 88.0083C207.761 88.0083 207.36 87.8703 207.032 87.5944C206.703 87.3185 206.494 86.9207 206.406 86.4006V86.4006ZM206.394 85.4413C206.458 84.9458 206.637 84.5438 206.929 84.2357C207.222 83.9279 207.593 83.7742 208.042 83.7742C208.282 83.7742 208.497 83.8179 208.685 83.9065C208.873 83.9938 209.036 84.1119 209.172 84.2598C209.308 84.4081 209.417 84.584 209.497 84.7875C209.577 84.9914 209.629 85.2095 209.653 85.4413H206.394ZM221.053 82.6943H219.814L218.407 87.0605L217.132 82.7188H215.641L217.698 89.0994H218.996L220.427 84.7695L221.846 89.0994H223.145L225.225 82.7188H223.77L222.471 87.0605L221.053 82.6943ZM228.111 81.7473V80.3676H226.548V81.7473H228.111ZM228.063 89.0519V82.7188H226.608V89.0519H228.063ZM231.719 83.9659H233.426V82.7188H231.719V80.9793H230.264V82.7188H229.458V83.9659H230.264V87.3005C230.264 87.6523 230.308 87.9462 230.396 88.1823C230.484 88.418 230.611 88.6081 230.775 88.7518C230.939 88.8955 231.133 88.9998 231.358 89.0638C231.583 89.1274 231.827 89.1596 232.091 89.1596C232.364 89.1596 232.604 89.1316 232.813 89.076C233.021 89.0197 233.218 88.94 233.402 88.8361V87.6484C233.114 87.7922 232.813 87.8642 232.5 87.8642C232.252 87.8642 232.059 87.8021 231.923 87.6783C231.787 87.5542 231.719 87.3526 231.719 87.0728V83.9659ZM236.348 85.4774C236.348 84.9815 236.481 84.5955 236.745 84.3196C237.01 84.044 237.355 83.9065 237.78 83.9065C238.213 83.9065 238.547 84.0402 238.783 84.3081C239.02 84.576 239.138 84.9577 239.138 85.4532V89.0519H240.593V85.0213C240.593 84.2778 240.397 83.6861 240.004 83.2465C239.611 82.8066 239.054 82.5866 238.332 82.5866C238.084 82.5866 237.862 82.6165 237.665 82.6766C237.469 82.7364 237.288 82.8184 237.124 82.9223C236.96 83.0262 236.816 83.1446 236.691 83.2764C236.567 83.4082 236.453 83.5504 236.348 83.7018V80.2955H234.893V89.0519H236.348V85.4774ZM248.77 85.8851C248.77 85.4291 248.686 85.0014 248.518 84.6017C248.349 84.2016 248.115 83.852 247.814 83.5524C247.513 83.2523 247.157 83.0166 246.744 82.8445C246.331 82.6728 245.88 82.5866 245.391 82.5866C244.902 82.5866 244.451 82.6747 244.038 82.8502C243.626 83.0262 243.269 83.2641 242.968 83.5642C242.667 83.8639 242.431 84.2157 242.259 84.6197C242.086 85.0232 242 85.4532 242 85.9093C242 86.3646 242.084 86.7907 242.252 87.1866C242.421 87.5825 242.656 87.9301 242.956 88.2298C243.257 88.5299 243.613 88.7656 244.026 88.9377C244.439 89.1097 244.886 89.1956 245.367 89.1956C245.856 89.1956 246.309 89.1078 246.726 88.9315C247.143 88.7556 247.502 88.518 247.802 88.2179C248.103 87.9183 248.34 87.5683 248.512 87.1682C248.684 86.7685 248.77 86.3412 248.77 85.8851V85.8851ZM247.315 85.9093C247.315 86.1891 247.271 86.4508 247.183 86.6946C247.094 86.9387 246.967 87.1525 246.798 87.3369C246.63 87.5204 246.427 87.6661 246.191 87.7745C245.954 87.8822 245.688 87.9363 245.391 87.9363C245.111 87.9363 244.852 87.8822 244.615 87.7745C244.379 87.6661 244.175 87.5204 244.002 87.3369C243.83 87.1525 243.696 86.9345 243.6 86.6827C243.503 86.4309 243.455 86.1649 243.455 85.8851C243.455 85.6054 243.499 85.3436 243.587 85.0995C243.676 84.8554 243.804 84.6419 243.972 84.458C244.14 84.274 244.343 84.128 244.579 84.0199C244.816 83.9122 245.078 83.8578 245.367 83.8578C245.656 83.8578 245.918 83.9122 246.155 84.0199C246.391 84.128 246.596 84.2759 246.768 84.4637C246.94 84.6515 247.075 84.8692 247.171 85.1175C247.267 85.3651 247.315 85.6291 247.315 85.9093ZM254.422 86.2929C254.422 86.7888 254.29 87.1748 254.025 87.4507C253.76 87.7262 253.416 87.8642 252.991 87.8642C252.558 87.8642 252.223 87.7301 251.987 87.4622C251.751 87.1943 251.632 86.813 251.632 86.3171V82.7188H250.177V86.7486C250.177 87.4925 250.374 88.0842 250.767 88.5238C251.16 88.9637 251.716 89.1837 252.438 89.1837C252.927 89.1837 253.328 89.0737 253.64 88.8537C253.953 88.6338 254.214 88.372 254.422 88.0681V89.0519H255.877V82.7188H254.422V86.2929ZM259.46 83.9659H261.168V82.7188H259.46V80.9793H258.005V82.7188H257.2V83.9659H258.005V87.3005C258.005 87.6523 258.05 87.9462 258.138 88.1823C258.226 88.418 258.352 88.6081 258.516 88.7518C258.681 88.8955 258.875 88.9998 259.1 89.0638C259.324 89.1274 259.569 89.1596 259.833 89.1596C260.106 89.1596 260.346 89.1316 260.555 89.076C260.763 89.0197 260.96 88.94 261.144 88.8361V87.6484C260.856 87.7922 260.555 87.8642 260.242 87.8642C259.993 87.8642 259.801 87.8021 259.665 87.6783C259.528 87.5542 259.46 87.3526 259.46 87.0728V83.9659ZM271.125 82.6943H269.886L268.479 87.0605L267.205 82.7188H265.714L267.77 89.0994H269.068L270.5 84.7695L271.918 89.0994H273.217L275.297 82.7188H273.843L272.544 87.0605L271.125 82.6943ZM281.683 89.0519V85.2972C281.683 84.4499 281.454 83.7919 280.997 83.3243C280.54 82.8564 279.839 82.6226 278.893 82.6226C278.372 82.6226 277.927 82.6705 277.558 82.7663C277.189 82.8625 276.829 82.9905 276.476 83.1503L276.873 84.3139C277.161 84.1939 277.446 84.0977 277.726 84.026C278.007 83.954 278.328 83.918 278.689 83.918C279.193 83.918 279.58 84.0337 279.849 84.2656C280.117 84.4978 280.252 84.8335 280.252 85.2735V85.4291C280.003 85.3494 279.745 85.2854 279.476 85.2375C279.208 85.1896 278.881 85.1654 278.496 85.1654C278.127 85.1654 277.785 85.2076 277.468 85.2915C277.151 85.3754 276.879 85.5011 276.65 85.669C276.422 85.8372 276.244 86.0492 276.115 86.3052C275.987 86.5608 275.923 86.8605 275.923 87.2046V87.2284C275.923 87.5484 275.985 87.8301 276.109 88.0742C276.234 88.318 276.398 88.5219 276.602 88.6859C276.807 88.8499 277.045 88.9741 277.318 89.0576C277.59 89.1416 277.879 89.1837 278.183 89.1837C278.664 89.1837 279.074 89.0956 279.41 88.9197C279.747 88.7441 280.023 88.528 280.24 88.272V89.0519H281.683ZM280.276 86.7609C280.276 86.9605 280.234 87.1426 280.15 87.3066C280.065 87.4706 279.947 87.6105 279.795 87.7262C279.643 87.8424 279.464 87.932 279.26 87.9961C279.055 88.0601 278.833 88.0919 278.592 88.0919C278.248 88.0919 277.957 88.0121 277.72 87.8523C277.484 87.6921 277.366 87.4603 277.366 87.1564V87.1326C277.366 86.8049 277.494 86.5528 277.75 86.3769C278.007 86.2009 278.364 86.1132 278.821 86.1132C279.102 86.1132 279.368 86.1373 279.62 86.1848C279.873 86.2328 280.091 86.2929 280.276 86.3646V86.7609ZM287.948 87.1805V87.1564C287.948 86.8685 287.887 86.6248 287.767 86.4248C287.647 86.2251 287.492 86.0549 287.305 85.915C287.116 85.7752 286.905 85.6571 286.673 85.5613C286.44 85.4651 286.208 85.3812 285.976 85.3095C285.791 85.2536 285.613 85.1953 285.441 85.1355C285.268 85.0757 285.116 85.0117 284.983 84.9439C284.851 84.8757 284.745 84.7994 284.665 84.7159C284.584 84.6316 284.544 84.5335 284.544 84.4219V84.3978C284.544 84.2138 284.623 84.0617 284.779 83.9421C284.935 83.8222 285.154 83.762 285.435 83.762C285.699 83.762 285.987 83.816 286.3 83.9241C286.613 84.0318 286.921 84.1782 287.226 84.3618L287.804 83.3301C287.467 83.1066 287.094 82.9303 286.685 82.8023C286.276 82.6747 285.871 82.6107 285.471 82.6107C285.158 82.6107 284.863 82.6544 284.587 82.7426C284.31 82.8303 284.069 82.9583 283.865 83.1262C283.661 83.294 283.5 83.4979 283.384 83.7382C283.268 83.9781 283.21 84.246 283.21 84.5419V84.5656C283.21 84.8692 283.27 85.1233 283.391 85.3271C283.51 85.531 283.665 85.7031 283.853 85.8434C284.041 85.9833 284.254 86.0971 284.491 86.1848C284.727 86.273 284.962 86.3531 285.194 86.4248C285.378 86.4811 285.557 86.5347 285.729 86.5869C285.901 86.639 286.054 86.6984 286.186 86.7666C286.318 86.8344 286.422 86.9126 286.499 87.0004C286.575 87.0885 286.613 87.1924 286.613 87.3127V87.3369C286.613 87.5446 286.527 87.7105 286.354 87.8339C286.182 87.9581 285.939 88.0202 285.627 88.0202C285.298 88.0202 284.955 87.9543 284.599 87.8224C284.242 87.6902 283.891 87.4963 283.546 87.2407L282.897 88.2241C283.298 88.536 283.733 88.7721 284.202 88.9315C284.671 89.0917 285.134 89.1718 285.591 89.1718C285.919 89.1718 286.228 89.1293 286.516 89.0457C286.805 88.9618 287.056 88.838 287.268 88.674C287.48 88.51 287.647 88.3042 287.767 88.0562C287.887 87.8086 287.948 87.5162 287.948 87.1805ZM291.062 83.9659H292.769V82.7188H291.062V80.9793H289.607V82.7188H288.801V83.9659H289.607V87.3005C289.607 87.6523 289.651 87.9462 289.739 88.1823C289.827 88.418 289.954 88.6081 290.118 88.7518C290.283 88.8955 290.477 88.9998 290.701 89.0638C290.926 89.1274 291.17 89.1596 291.435 89.1596C291.707 89.1596 291.948 89.1316 292.156 89.076C292.365 89.0197 292.561 88.94 292.745 88.8361V87.6484C292.457 87.7922 292.156 87.8642 291.844 87.8642C291.595 87.8642 291.402 87.8021 291.266 87.6783C291.13 87.5542 291.062 87.3526 291.062 87.0728V83.9659ZM295.163 86.4006H299.829C299.836 86.3289 299.842 86.2607 299.847 86.1967C299.85 86.1327 299.852 86.0687 299.852 86.0051C299.852 85.5494 299.788 85.1137 299.66 84.6975C299.532 84.282 299.341 83.918 299.089 83.6064C298.836 83.294 298.52 83.0465 298.139 82.8625C297.758 82.6786 297.315 82.5866 296.81 82.5866C296.353 82.5866 295.937 82.6747 295.56 82.8502C295.183 83.0262 294.856 83.2641 294.58 83.5642C294.303 83.8639 294.088 84.2138 293.936 84.6139C293.784 85.0137 293.708 85.4414 293.708 85.897C293.708 86.3926 293.792 86.8429 293.96 87.2464C294.129 87.6504 294.359 87.9961 294.652 88.2843C294.944 88.5721 295.289 88.7955 295.686 88.9557C296.083 89.1159 296.51 89.1956 296.966 89.1956C297.552 89.1956 298.055 89.0875 298.476 88.8721C298.896 88.656 299.259 88.3678 299.564 88.0083L298.71 87.2526C298.454 87.5001 298.193 87.6883 297.928 87.8163C297.664 87.9443 297.351 88.0083 296.99 88.0083C296.517 88.0083 296.117 87.8703 295.788 87.5944C295.459 87.3185 295.251 86.9207 295.163 86.4006V86.4006ZM295.151 85.4413C295.215 84.9458 295.393 84.5438 295.686 84.2357C295.978 83.9279 296.349 83.7742 296.798 83.7742C297.039 83.7742 297.253 83.8179 297.441 83.9065C297.63 83.9938 297.792 84.1119 297.928 84.2598C298.065 84.4081 298.173 84.584 298.253 84.7875C298.333 84.9914 298.385 85.2095 298.41 85.4413H295.151"
    fill="#B8BAC1" />
</svg>