<svg width="238" height="155" viewBox="0 0 238 155" fill="none" xmlns="http://www.w3.org/2000/svg">
  <path d="M40.2297 88.4783H57.1287V84.676H44.5148V64.9404H40.2297V88.4783Z" fill="white" />
  <path d="M181.871 88.4783H186.096V84.676V64.9404H181.871V88.4783Z" fill="white" />
  <path d="M61.9572 74.5969V88.4782H80.0632V84.7363H66.2423V78.3388H78.3733V74.5969H73.2433H66.2423H61.9572Z"
    fill="white" />
  <path d="M79 65H61V68.62H79V65Z" fill="#A50D73" />
  <path opacity="0.99"
    d="M97.8732 64.6777H94.1268L84 88.6777H88.1561C92.1366 78.9577 91.7268 79.8577 95.9415 69.6577C100.156 79.7377 99.8049 79.0177 103.727 88.6777H108L97.8732 64.6777Z"
    fill="white" />
  <path opacity="0.99"
    d="M201.064 89.0818L204.926 89.0215L215.066 64.9404L210.781 65.0008C206.797 74.7177 207.22 73.8124 202.995 84.0725C198.529 74.0538 198.891 74.7781 194.726 65.1818L190.321 65.2422L201.064 89.0818Z"
    fill="white" />
  <path
    d="M129.338 81.1755L116.724 64.9404H112.861V88.4783H116.965V71.7L129.941 88.4783H133.381V64.9404H129.338V81.1755Z"
    fill="white" />
  <path d="M149 80.1777V76.1777H139V80.1777H149Z" fill="white" />
  <path d="M238 65H220V68.62H238V65Z" fill="#A50D73" />
  <path d="M219.894 74.5969V88.4782H238V84.7363H224.179V78.3388H236.31V74.5969H231.421H224.179H219.894Z" fill="white" />
  <path fillRule="evenodd" clipRule="evenodd"
    d="M154.109 88.4783H158.333V84.676V79.4253H171.008V88.4783H175.232V84.676V64.9404H171.008V75.8041H158.333V64.9404H154.109V75.8041V79.4253V88.4783Z"
    fill="white" />
  <path
    d="M66.6907 0L133.381 38.5056V62.1641H129.76V40.5576L66.6907 4.16439L3.62121 40.5576V113.404L66.6907 149.737L129.76 113.344V91.1338H133.381V115.517L66.6907 154.022L0 115.517V38.5056L66.6907 0Z"
    fill="#A50D73" />
  <path
    d="M141.148 97.032H145.615C145.615 96.9717 145.615 96.9113 145.615 96.851C145.615 96.7906 145.615 96.7303 145.615 96.6699C145.615 96.2474 145.554 95.825 145.434 95.4025C145.313 94.98 145.132 94.6782 144.89 94.3765C144.649 94.0747 144.347 93.8333 143.985 93.6522C143.623 93.4712 143.2 93.4108 142.718 93.4108C142.295 93.4108 141.873 93.4712 141.511 93.6522C141.148 93.8333 140.847 94.0747 140.545 94.3161C140.303 94.6179 140.062 94.9197 139.941 95.3421C139.821 95.7646 139.7 96.1267 139.7 96.5492C139.7 97.032 139.76 97.4545 139.941 97.877C140.122 98.2391 140.303 98.6012 140.605 98.8426C140.907 99.1444 141.209 99.3255 141.571 99.5065C141.933 99.6876 142.356 99.7479 142.778 99.7479C143.321 99.7479 143.804 99.6272 144.226 99.4462C144.649 99.2651 145.011 98.9633 145.252 98.6012L144.408 97.877C144.166 98.1184 143.925 98.2995 143.683 98.4202C143.442 98.5409 143.14 98.6012 142.778 98.6012C142.295 98.6012 141.933 98.4805 141.631 98.2391C141.45 97.9373 141.269 97.5149 141.148 97.032ZM141.148 96.1267C141.209 95.6439 141.39 95.2818 141.631 94.98C141.933 94.6782 142.295 94.5575 142.718 94.5575C142.959 94.5575 143.14 94.6179 143.321 94.6782C143.502 94.7386 143.683 94.8593 143.804 95.0404C143.925 95.1611 144.045 95.3421 144.106 95.5232C144.166 95.7042 144.226 95.9457 144.226 96.1267H141.148ZM152.133 94.4368C151.952 94.1351 151.71 93.8333 151.409 93.6522C151.107 93.4712 150.745 93.3505 150.322 93.3505C150.081 93.3505 149.9 93.4108 149.658 93.4712C149.477 93.5315 149.296 93.5919 149.175 93.7126C149.055 93.8333 148.874 93.954 148.813 94.0747C148.693 94.1954 148.572 94.3161 148.512 94.4368V93.5315H147.123V99.6272H148.512V96.1871C148.512 95.7043 148.632 95.3421 148.874 95.0404C149.115 94.7989 149.417 94.6179 149.839 94.6179C150.201 94.6179 150.564 94.7386 150.745 94.98C150.986 95.2214 151.046 95.5835 151.046 96.0664V99.5065H152.435V96.0664C152.435 95.5835 152.555 95.2214 152.797 94.9197C153.038 94.6782 153.34 94.5575 153.762 94.5575C154.124 94.5575 154.487 94.6782 154.668 94.9197C154.909 95.1611 154.969 95.5232 154.969 96.006V99.4462H156.358V95.5835C156.358 94.8593 156.176 94.2558 155.814 93.8936C155.452 93.4712 154.909 93.2901 154.245 93.2901C153.762 93.2901 153.4 93.4108 153.038 93.5919C152.676 93.8333 152.374 94.1351 152.133 94.4368ZM164.324 96.5492C164.324 96.0664 164.264 95.5835 164.083 95.2214C163.902 94.8593 163.721 94.4972 163.419 94.2558C163.177 93.954 162.876 93.7729 162.514 93.6522C162.151 93.5315 161.85 93.4712 161.488 93.4712C161.005 93.4712 160.582 93.5919 160.281 93.8333C159.979 94.0747 159.677 94.3161 159.436 94.6179V93.5919H158.047V101.498H159.436V98.6616C159.677 98.9633 159.918 99.2048 160.281 99.3858C160.582 99.6272 161.005 99.6876 161.548 99.6876C161.91 99.6876 162.272 99.6272 162.574 99.5065C162.936 99.3858 163.238 99.1444 163.479 98.903C163.721 98.6012 163.962 98.2995 164.083 97.877C164.203 97.5149 164.324 97.032 164.324 96.5492ZM162.876 96.5492C162.876 96.851 162.815 97.0924 162.755 97.3942C162.634 97.6356 162.514 97.8166 162.393 97.9977C162.212 98.1787 162.031 98.2995 161.85 98.3598C161.669 98.4805 161.427 98.4805 161.186 98.4805C160.944 98.4805 160.703 98.4202 160.522 98.3598C160.281 98.2391 160.099 98.1184 159.979 97.9977C159.798 97.8166 159.677 97.6356 159.617 97.3942C159.496 97.1527 159.496 96.9113 159.496 96.6096C159.496 96.3078 159.556 96.0664 159.617 95.825C159.737 95.5835 159.858 95.4025 159.979 95.2214C160.16 95.0404 160.341 94.9197 160.522 94.7989C160.763 94.6782 160.944 94.6782 161.186 94.6782C161.427 94.6782 161.669 94.7386 161.85 94.7989C162.091 94.9197 162.272 95.0404 162.393 95.1611C162.574 95.3421 162.695 95.5232 162.755 95.7646C162.815 95.9457 162.876 96.2474 162.876 96.5492ZM171.868 96.5492C171.868 96.1267 171.808 95.7043 171.627 95.3421C171.446 94.98 171.265 94.6179 170.963 94.3161C170.661 94.0144 170.36 93.7729 169.937 93.6522C169.575 93.4712 169.092 93.4108 168.67 93.4108C168.247 93.4108 167.764 93.4712 167.342 93.6522C166.98 93.8333 166.618 94.0747 166.316 94.3161C166.014 94.6179 165.833 94.9197 165.652 95.3421C165.471 95.7043 165.411 96.1267 165.411 96.5492C165.411 96.9717 165.471 97.3941 165.652 97.7563C165.833 98.1184 166.014 98.4805 166.316 98.7823C166.618 99.084 166.98 99.2651 167.342 99.4462C167.764 99.6272 168.187 99.6876 168.609 99.6876C169.092 99.6876 169.515 99.6272 169.937 99.4462C170.36 99.2651 170.661 99.0237 170.963 98.7823C171.265 98.4805 171.506 98.1787 171.627 97.7563C171.808 97.3941 171.868 96.9717 171.868 96.5492ZM170.48 96.5492C170.48 96.7906 170.42 97.0924 170.36 97.3338C170.299 97.5752 170.178 97.7563 169.997 97.9373C169.816 98.1184 169.635 98.2391 169.394 98.3598C169.152 98.4805 168.911 98.4805 168.609 98.4805C168.368 98.4805 168.066 98.4202 167.885 98.3598C167.644 98.2391 167.463 98.1184 167.282 97.9373C167.1 97.7563 166.98 97.5752 166.919 97.3338C166.799 97.0924 166.799 96.851 166.799 96.5492C166.799 96.2474 166.859 96.006 166.919 95.825C166.98 95.5835 167.1 95.4025 167.282 95.2214C167.463 95.0404 167.644 94.9197 167.885 94.7989C168.126 94.6782 168.368 94.6179 168.67 94.6179C168.971 94.6179 169.213 94.6782 169.394 94.7989C169.635 94.9197 169.816 95.0404 169.997 95.2214C170.178 95.4025 170.299 95.5835 170.36 95.825C170.42 96.0664 170.48 96.3078 170.48 96.5492ZM177.662 93.4712H176.455L175.127 97.6959L173.92 93.5315H172.472L174.464 99.6876H175.731L177.119 95.5232L178.507 99.6876H179.775L181.766 93.5315H180.378L179.111 97.6959L177.662 93.4712ZM183.698 97.032H188.164C188.164 96.9717 188.164 96.9113 188.164 96.851C188.164 96.7906 188.164 96.7303 188.164 96.6699C188.164 96.2474 188.103 95.825 187.983 95.4025C187.862 94.98 187.681 94.6782 187.44 94.3765C187.198 94.0747 186.896 93.8333 186.534 93.6522C186.172 93.4712 185.75 93.4108 185.267 93.4108C184.844 93.4108 184.422 93.4712 184.06 93.6522C183.698 93.8333 183.396 94.0747 183.094 94.3161C182.853 94.6179 182.611 94.9197 182.491 95.3421C182.37 95.7646 182.249 96.1267 182.249 96.5492C182.249 97.032 182.31 97.4545 182.491 97.877C182.672 98.2391 182.853 98.6012 183.155 98.8426C183.456 99.1444 183.758 99.3255 184.12 99.5065C184.482 99.6876 184.905 99.7479 185.327 99.7479C185.87 99.7479 186.353 99.6272 186.776 99.4462C187.198 99.2651 187.56 98.9633 187.802 98.6012L186.957 97.877C186.715 98.1184 186.474 98.2995 186.233 98.4202C185.991 98.5409 185.689 98.6012 185.327 98.6012C184.844 98.6012 184.482 98.4805 184.181 98.2391C183.999 97.9373 183.758 97.5149 183.698 97.032ZM183.698 96.1267C183.758 95.6439 183.939 95.2818 184.181 94.98C184.482 94.6782 184.844 94.5575 185.267 94.5575C185.508 94.5575 185.689 94.6179 185.87 94.6782C186.051 94.7386 186.233 94.8593 186.353 95.0404C186.474 95.1611 186.595 95.3421 186.655 95.5232C186.715 95.7042 186.776 95.9457 186.776 96.1267H183.698ZM191 97.2734C191 96.851 191.061 96.5492 191.121 96.2474C191.242 95.9457 191.363 95.7043 191.544 95.4628C191.725 95.2818 191.966 95.1007 192.208 95.0404C192.449 94.9197 192.751 94.9197 193.052 94.9197H193.113V93.4712C192.57 93.4712 192.147 93.5919 191.785 93.8333C191.423 94.1351 191.182 94.4972 190.94 94.9197V93.5315H189.552V99.6272H190.94V97.2734H191ZM199.51 94.6782H201.14V93.4712H199.51V91.7813H198.122V93.4712H197.338V94.6782H198.122V97.877C198.122 98.2391 198.183 98.4805 198.243 98.7219C198.303 98.9633 198.424 99.1444 198.605 99.2651C198.786 99.3858 198.967 99.5065 199.148 99.5669C199.39 99.6272 199.571 99.6876 199.872 99.6876C200.114 99.6876 200.355 99.6876 200.536 99.6272C200.717 99.5669 200.898 99.5065 201.08 99.3858V98.2391C200.778 98.3598 200.536 98.4202 200.235 98.4202C199.993 98.4202 199.812 98.3598 199.691 98.2391C199.571 98.1184 199.51 97.9373 199.51 97.6356V94.6782ZM207.658 99.5669V95.9457C207.658 95.1611 207.417 94.4972 206.994 94.0747C206.572 93.5919 205.908 93.4108 205.002 93.4108C204.52 93.4108 204.097 93.4712 203.735 93.5315C203.373 93.6522 203.011 93.7729 202.709 93.8936L203.071 95.0404C203.373 94.9197 203.614 94.8593 203.916 94.7386C204.158 94.6782 204.52 94.6179 204.821 94.6179C205.304 94.6179 205.666 94.7386 205.908 94.98C206.149 95.2214 206.27 95.5232 206.27 95.9457V96.0664C206.029 96.006 205.787 95.9457 205.546 95.8853C205.304 95.825 205.002 95.825 204.64 95.825C204.278 95.825 203.976 95.8853 203.675 95.9457C203.373 96.006 203.132 96.1267 202.89 96.3078C202.649 96.4888 202.528 96.6699 202.407 96.9113C202.287 97.1527 202.226 97.4545 202.226 97.7563C202.226 98.058 202.287 98.3598 202.407 98.6012C202.528 98.8426 202.709 99.0237 202.89 99.2048C203.071 99.3858 203.313 99.4462 203.554 99.5669C203.795 99.6272 204.097 99.6876 204.399 99.6876C204.882 99.6876 205.244 99.6272 205.546 99.4462C205.847 99.2651 206.149 99.084 206.33 98.8426V99.5669H207.658ZM206.27 97.3942C206.27 97.5752 206.21 97.7563 206.149 97.9373C206.089 98.1184 205.968 98.2391 205.787 98.3598C205.666 98.4805 205.485 98.5409 205.244 98.6012C205.063 98.6616 204.821 98.7219 204.64 98.7219C204.339 98.7219 204.037 98.6616 203.795 98.4805C203.554 98.2995 203.433 98.1184 203.433 97.8166C203.433 97.5149 203.554 97.2734 203.795 97.0924C204.037 96.9113 204.399 96.851 204.821 96.851C205.063 96.851 205.365 96.851 205.606 96.9113C205.847 96.9717 206.089 97.032 206.27 97.0924V97.3942ZM210.736 99.5669V91.1777H209.348V99.5669H210.736ZM213.633 97.032H218.099C218.099 96.9717 218.099 96.9113 218.099 96.851C218.099 96.7906 218.099 96.7303 218.099 96.6699C218.099 96.2474 218.039 95.825 217.918 95.4025C217.797 94.98 217.616 94.6782 217.375 94.3765C217.134 94.0747 216.832 93.8333 216.47 93.6522C216.108 93.4712 215.685 93.4108 215.202 93.4108C214.78 93.4108 214.357 93.4712 213.995 93.6522C213.633 93.8333 213.331 94.0747 213.03 94.3161C212.788 94.6179 212.547 94.9197 212.426 95.3421C212.305 95.7043 212.185 96.1267 212.185 96.5492C212.185 97.032 212.245 97.4545 212.426 97.877C212.607 98.2391 212.788 98.6012 213.09 98.8426C213.392 99.1444 213.693 99.3255 214.056 99.5065C214.418 99.6876 214.84 99.7479 215.263 99.7479C215.806 99.7479 216.289 99.6272 216.711 99.4462C217.134 99.2651 217.496 98.9633 217.737 98.6012L216.892 97.877C216.651 98.1184 216.409 98.2995 216.168 98.4202C215.926 98.5409 215.625 98.6012 215.263 98.6012C214.78 98.6012 214.418 98.4805 214.116 98.2391C213.935 97.9373 213.754 97.5149 213.633 97.032ZM213.633 96.1267C213.693 95.6439 213.874 95.2818 214.116 94.98C214.418 94.6782 214.78 94.5575 215.202 94.5575C215.444 94.5575 215.625 94.6179 215.806 94.6782C215.987 94.7386 216.168 94.8593 216.289 95.0404C216.409 95.1611 216.53 95.3421 216.59 95.5232C216.651 95.7042 216.711 95.9457 216.711 96.1267H213.633ZM220.936 96.1267C220.936 95.6439 221.057 95.2818 221.298 95.0404C221.539 94.7989 221.901 94.6179 222.264 94.6179C222.686 94.6179 222.988 94.7386 223.229 94.98C223.471 95.2214 223.591 95.5835 223.591 96.0664V99.5065H224.98V95.6439C224.98 94.9197 224.798 94.3765 224.436 93.954C224.074 93.5315 223.531 93.2901 222.807 93.2901C222.565 93.2901 222.324 93.3505 222.143 93.4108C221.962 93.4712 221.781 93.5315 221.6 93.6522C221.419 93.7729 221.298 93.8936 221.177 94.0144C221.057 94.1351 220.936 94.2558 220.875 94.4368V93.4712H219.487V99.5669H220.875V96.1267H220.936ZM228.359 94.6782H229.989V93.4712H228.359V91.7813H226.971V93.4712H226.187V94.6782H226.971V97.877C226.971 98.2391 227.032 98.4805 227.092 98.7219C227.152 98.9633 227.273 99.1444 227.454 99.2651C227.635 99.3858 227.816 99.5065 227.997 99.5669C228.178 99.6272 228.42 99.6876 228.721 99.6876C228.963 99.6876 229.204 99.6876 229.385 99.6272C229.566 99.5669 229.747 99.5065 229.928 99.3858V98.2391C229.627 98.3598 229.385 98.4202 229.084 98.4202C228.842 98.4202 228.661 98.3598 228.54 98.2391C228.42 98.1184 228.359 97.9373 228.359 97.6356V94.6782ZM235.722 97.7563C235.722 97.4545 235.662 97.2131 235.541 97.032C235.421 96.851 235.3 96.6699 235.119 96.5492C234.938 96.4285 234.757 96.3078 234.515 96.1871C234.274 96.0664 234.093 96.006 233.851 95.9457C233.67 95.8853 233.489 95.825 233.308 95.7646C233.127 95.7043 233.007 95.6439 232.886 95.5835C232.765 95.5232 232.644 95.4628 232.584 95.3421C232.524 95.2818 232.463 95.1611 232.463 95.0404C232.463 94.8593 232.524 94.7386 232.705 94.6179C232.886 94.4972 233.067 94.4368 233.308 94.4368C233.55 94.4368 233.851 94.4972 234.153 94.6179C234.455 94.7386 234.757 94.8593 235.059 95.0404L235.602 94.0747C235.3 93.8333 234.938 93.7126 234.515 93.5919C234.153 93.4712 233.731 93.4108 233.369 93.4108C233.067 93.4108 232.765 93.4712 232.524 93.5315C232.282 93.5919 232.041 93.7126 231.86 93.8936C231.679 94.0747 231.498 94.2558 231.377 94.4972C231.256 94.7386 231.196 94.98 231.196 95.2818C231.196 95.5835 231.256 95.825 231.377 96.006C231.498 96.1871 231.618 96.3681 231.799 96.4888C231.981 96.6096 232.162 96.7303 232.403 96.7906C232.644 96.851 232.886 96.9717 233.067 97.032C233.248 97.0924 233.429 97.1527 233.55 97.2131C233.731 97.2734 233.851 97.3338 233.972 97.3942C234.093 97.4545 234.214 97.5149 234.274 97.6356C234.334 97.6959 234.395 97.8166 234.395 97.9373C234.395 98.1184 234.334 98.2995 234.153 98.4202C233.972 98.5409 233.791 98.6012 233.489 98.6012C233.188 98.6012 232.825 98.5409 232.524 98.4202C232.162 98.2995 231.86 98.1184 231.498 97.877L230.894 98.8426C231.256 99.1444 231.679 99.3858 232.162 99.5065C232.644 99.6876 233.067 99.7479 233.489 99.7479C233.791 99.7479 234.093 99.6876 234.395 99.6272C234.696 99.5669 234.938 99.4462 235.119 99.2651C235.3 99.084 235.481 98.903 235.602 98.6616C235.722 98.4202 235.722 98.1184 235.722 97.7563Z"
    fill="#BFB7C2" />
</svg>